<?xml version="1.0" encoding="utf-8"?>
<!-- Generator: Adobe Illustrator 23.0.4, SVG Export Plug-In . SVG Version: 6.00 Build 0)  -->
<svg version="1.1" id="Capa_1" xmlns="http://www.w3.org/2000/svg" xmlns:xlink="http://www.w3.org/1999/xlink" x="0px" y="0px"
	 viewBox="0 0 300 300.2" style="enable-background:new 0 0 300 300.2;" xml:space="preserve">
<style type="text/css">
	.st0{fill:#FF5364;}
	.st1{fill:#F3D55B;}
</style>
<path class="st0" d="M246.6,34.7c-20-16.7-44-27.9-69.7-32.4h-0.1C168.2,0.8,159.4,0,150.6,0C86.2,0,29,40.9,8.3,101.9l-0.1,0.1
	C-4.4,139.1-2,179.7,14.9,215.1v0.1c26.5,55.4,84.2,89.1,145.5,85.1c61.3-4.1,114-45.1,133-103.6S293.9,74,246.6,34.7z"/>
<g>
	<path class="st1" d="M293.3,197.2c-16.5,50-57.9,87.8-109.2,99.6v-0.1c-27.9-37.4-46-81.2-52.7-127.3c-4.5-33.2-6.1-54.7-6.7-68.5
		c3.5-1,6.8-2.4,9.9-4.2c8.9-5,15.6-13.1,18.8-22.8h0.1c18,4.6,49.3,17.4,87.2,51.8C263,145.6,280.9,170,293.3,197.2L293.3,197.2z
		 M246.6,34.7c-54.4-7.6-84.1-0.3-99.7,7.6c-6.3-6.5-15-10.2-24-10.3c7.7-18.2,31.8-26.2,53.9-29.7h0.1
		C202.6,6.8,226.6,18,246.6,34.7L246.6,34.7z M86.7,90.2c-17.9,15.6-34,33-48.2,51.9c-15.6,21.1-23.9,46.7-23.6,73
		c-16.9-35.4-19.3-76-6.7-113.1l0.1-0.1c30-37.1,55.5-41.7,72.6-37.9c-1.7,7.6-0.6,15.7,3.3,22.5C84.9,87.8,85.8,89,86.7,90.2
		L86.7,90.2z"/>
</g>
</svg>
